<?xml version="1.0" standalone="no"?>
<!DOCTYPE svg PUBLIC "-//W3C//DTD SVG 20010904//EN"
 "http://www.w3.org/TR/2001/REC-SVG-20010904/DTD/svg10.dtd">
<svg version="1.0" xmlns="http://www.w3.org/2000/svg"
 width="115.000000pt" height="115.000000pt" viewBox="0 0 115.000000 115.000000"
 preserveAspectRatio="xMidYMid meet">
<metadata>
Created by potrace 1.14, written by Peter Selinger 2001-2017
</metadata>
<g transform="translate(0.000000,115.000000) scale(0.100000,-0.100000)"
fill="#000000" stroke="none">
<path d="M610 952 c0 -4 9 -13 20 -20 15 -9 20 -23 20 -55 0 -46 -14 -69 -36
-60 -8 3 -14 0 -14 -7 0 -6 -11 -10 -27 -8 -18 2 -33 14 -47 37 l-20 34 23 39
c22 39 22 39 2 28 -59 -31 -73 -121 -26 -170 34 -35 67 -44 111 -30 50 17 84
63 84 114 0 23 -7 51 -15 63 -14 20 -75 49 -75 35z"/>
<path d="M548 694 c-55 -17 -64 -28 -15 -19 l34 7 21 -99 c11 -54 26 -128 33
-165 7 -38 16 -68 20 -68 9 0 39 143 63 298 7 46 -77 70 -156 46z"/>
<path d="M480 624 c0 -16 11 -92 25 -169 18 -96 24 -156 19 -191 -5 -44 -3
-55 15 -73 27 -27 72 -27 102 0 23 19 23 20 2 10 -32 -16 -61 -13 -67 7 -3 9
-24 111 -47 227 -22 116 -43 212 -45 214 -2 2 -4 -9 -4 -25z"/>
</g>
</svg>
